<svg width="60" height="60" viewBox="0 0 60 60" fill="none" xmlns="http://www.w3.org/2000/svg">
<path opacity="0.1" fill-rule="evenodd" clip-rule="evenodd" d="M30 60C46.5685 60 60 46.5685 60 30C60 13.4315 46.5685 0 30 0C13.4315 0 0 13.4315 0 30C0 46.5685 13.4315 60 30 60Z" fill="#D8D8D8"/>
<path d="M23.5791 21C28.0935 19.6667 32.9065 19.6667 37.4209 21L37.7891 21.1084C38.5079 21.321 39 21.973 39 22.7119V31.6319C38.9997 33.9556 38.018 36.1749 36.29 37.7578C33.0269 40.7475 27.9721 40.7475 24.709 37.7578C22.9814 36.1747 22.0001 33.9555 22 31.6319V22.7119C22 21.973 22.4921 21.321 23.2109 21.1084L23.5791 21ZM35.4414 27.2559C35.1687 26.8797 34.637 26.792 34.2549 27.0606L28.8906 30.833L26.8506 28.8252C26.5171 28.5081 25.9871 28.5122 25.6592 28.835C25.3314 29.1578 25.3273 29.6795 25.6494 30.0078L28.1992 32.5186C28.2455 32.5566 28.296 32.5892 28.3496 32.6162C28.3809 32.64 28.4139 32.6615 28.4482 32.6807C28.558 32.7331 28.6778 32.762 28.7998 32.7647C28.8986 32.7627 28.9966 32.7441 29.0889 32.709C29.1179 32.697 29.1464 32.6832 29.1738 32.668C29.2153 32.6517 29.2557 32.6321 29.2939 32.6094L35.2441 28.4248L35.2432 28.4229C35.625 28.1544 35.7138 27.632 35.4414 27.2559Z" fill="#DE3C3C"/>
</svg>
